<?xml version="1.0" encoding="UTF-8"?>
<svg version="1.1" xmlns="http://www.w3.org/2000/svg" width="1024" height="1024">
<path d="M0 0 C337.92 0 675.84 0 1024 0 C1024 337.92 1024 675.84 1024 1024 C686.08 1024 348.16 1024 0 1024 C0 686.08 0 348.16 0 0 Z " fill="#F3F2F2" transform="translate(0,0)"/>
<path d="M0 0 C2.30119812 -0.00389788 4.60239382 -0.00954222 6.90358388 -0.0167709 C13.19535883 -0.03147304 19.48688216 -0.02137535 25.77864885 -0.00703418 C31.87711106 0.00295606 37.97552113 -0.00591006 44.073981 -0.01415812 C57.30858173 -0.03130892 70.54309936 -0.02583565 83.77769832 -0.01080093 C95.35851359 0.00226976 106.93930009 0.00744316 118.52012253 0.00488091 C119.28939997 0.00472049 120.05867741 0.00456007 120.85126629 0.0043948 C123.9742801 0.00373117 127.09729389 0.00302875 130.22030768 0.00226946 C159.49237471 -0.00474832 188.7643911 0.01071618 218.03644524 0.03689292 C244.02597084 0.06001111 270.0154408 0.06539377 296.00497437 0.05516052 C302.66195485 0.05255837 309.31893535 0.04997332 315.97591591 0.0475626 C317.20536205 0.04711643 317.20536205 0.04711643 318.45964548 0.04666124 C340.19754432 0.03904202 361.93543862 0.04546231 383.67333543 0.05625862 C386.01302426 0.05740639 388.35271308 0.05854956 390.69240191 0.05968544 C392.24438726 0.06044069 393.79637259 0.06120633 395.34835792 0.06198245 C406.92145875 0.06763415 418.49454516 0.06631534 430.06764603 0.06175423 C443.22896665 0.05664079 456.39023342 0.06252449 469.55154063 0.08264852 C476.26501807 0.09265033 482.97839693 0.09763498 489.69188499 0.08975601 C495.84037183 0.0826878 501.98868219 0.0895308 508.1371458 0.10735964 C510.35831042 0.11139665 512.57949117 0.11041685 514.80064972 0.10384078 C534.62911539 0.05017138 553.12296177 1.87855861 568.13778687 16.50120544 C580.3090464 30.83330453 583.44537387 44.08501979 583.4052124 62.46051025 C583.40895246 64.08489893 583.4135554 65.7092858 583.41894305 67.33366984 C583.43114429 71.78240919 583.43091598 76.23107317 583.4285543 80.67982543 C583.42814541 85.48363434 583.43919209 90.28741933 583.44866943 95.09121704 C583.46526415 104.49681425 583.47077827 113.9023864 583.47189419 123.30799703 C583.4728453 130.95451799 583.47695873 138.6010307 583.48329544 146.24754906 C583.50090294 167.93657815 583.51013497 189.62558746 583.50863449 211.31462375 C583.50851462 213.06757617 583.50851462 213.06757617 583.50839233 214.85594177 C583.50831057 216.02600675 583.50822881 217.19607173 583.50814457 218.40159323 C583.5073316 237.36573702 583.52647339 256.3298014 583.55466907 275.29392222 C583.5834054 294.77568454 583.59720898 314.25740814 583.59548151 333.73919219 C583.59481792 344.67294176 583.60029704 355.60660806 583.62183762 366.54033852 C583.64005914 375.84883113 583.64438865 385.1572027 583.63081877 394.46570543 C583.62429434 399.21253896 583.62415306 403.95914033 583.64152527 408.70595169 C583.65728393 413.05670668 583.65436396 417.40704598 583.636957 421.75779101 C583.63389328 423.32636763 583.63749573 424.8949755 583.64867716 426.46351526 C583.7568745 442.72680564 579.74389035 455.82551683 568.38778687 467.75120544 C553.03252703 482.32956225 536.07111382 483.09538371 515.97822571 483.00914001 C513.6325174 483.01375388 511.28681199 483.02011004 508.94111258 483.02804899 C503.1929744 483.04295728 497.44505879 483.03939685 491.69691778 483.02784593 C484.805239 483.01504124 477.91364392 483.02556967 471.02196924 483.03669358 C457.52112327 483.05771565 444.02035318 483.05594741 430.51950005 483.04437793 C418.7051007 483.03430371 406.89072913 483.03169449 395.07632637 483.03646851 C394.29173038 483.03677405 393.50713438 483.03707959 392.69876275 483.03739439 C389.5136012 483.0386398 386.32843966 483.03991341 383.14327814 483.04123344 C353.28355873 483.05346072 323.42388756 483.04238922 293.56417559 483.02084585 C267.05117056 483.00186253 240.53824239 483.0035645 214.02523804 483.02268982 C184.21757042 483.04412004 154.40994539 483.05259532 124.60227114 483.04024076 C121.42332463 483.03895795 118.24437812 483.03770658 115.06543159 483.03646851 C114.28272963 483.0361522 113.50002766 483.03583589 112.69360745 483.03550999 C100.8876093 483.03096511 89.08164199 483.03627181 77.27564812 483.04638672 C63.8489588 483.05783302 50.42235703 483.05494461 36.9956786 483.03326374 C30.14649679 483.02256801 23.29745703 483.0181038 16.44827652 483.03186035 C10.17572894 483.04379872 3.90348145 483.03719727 -2.36903899 483.01595014 C-4.63532103 483.01149031 -6.90162854 483.01373634 -9.16789413 483.0234533 C-28.35988954 483.09941522 -43.04505814 480.90392188 -57.67471313 467.25120544 C-69.64102736 454.60110183 -72.47619063 438.90088225 -72.36341858 422.08538818 C-72.36731895 420.46024391 -72.37296526 418.83510307 -72.38018948 417.20997018 C-72.39485596 412.77770595 -72.38481577 408.3458002 -72.37045276 403.91354787 C-72.35929669 399.12074873 -72.37130073 394.32799798 -72.3802948 389.53520203 C-72.39419685 380.16019184 -72.38669399 370.78531675 -72.37161922 361.41031305 C-72.35472502 350.48650404 -72.35797359 339.56272836 -72.3617133 328.63891032 C-72.3675861 309.14661101 -72.35344192 289.65437638 -72.32876587 270.16209412 C-72.30483692 251.25777259 -72.29776622 232.35353744 -72.30825806 213.44920349 C-72.31967164 192.84723134 -72.32159263 172.24529909 -72.30715996 151.64332741 C-72.30563416 149.44598687 -72.30411381 147.24864632 -72.30259895 145.05130577 C-72.30184114 143.9702524 -72.30108332 142.88919902 -72.30030255 141.77538646 C-72.29556391 134.16463669 -72.29740811 126.55390478 -72.30166435 118.94315529 C-72.30659481 109.66801 -72.30058939 100.39294632 -72.28077006 91.1178197 C-72.27091043 86.38745389 -72.26577867 81.65721223 -72.27366257 76.92683983 C-72.28073667 72.59366726 -72.27387443 68.26074485 -72.25605894 63.92760517 C-72.25202573 62.36322798 -72.25299533 60.79882786 -72.2595778 59.23445932 C-72.29165709 50.89449697 -71.95086965 43.34923872 -68.86221313 35.50120544 C-68.50901001 34.57308044 -68.15580688 33.64495544 -67.79190063 32.68870544 C-61.05353888 18.71284404 -49.28848007 8.63002589 -34.84760344 3.41189235 C-23.25207658 -0.09310427 -12.03749958 -0.05666126 0 0 Z " fill="#F23D40" transform="translate(256.8622131347656,108.49879455566406)"/>
<path d="M0 0 C2.30119812 -0.00389788 4.60239382 -0.00954222 6.90358388 -0.0167709 C13.19535883 -0.03147304 19.48688216 -0.02137535 25.77864885 -0.00703418 C31.87711106 0.00295606 37.97552113 -0.00591006 44.073981 -0.01415812 C57.30858173 -0.03130892 70.54309936 -0.02583565 83.77769832 -0.01080093 C95.35851359 0.00226976 106.93930009 0.00744316 118.52012253 0.00488091 C119.28939997 0.00472049 120.05867741 0.00456007 120.85126629 0.0043948 C123.9742801 0.00373117 127.09729389 0.00302875 130.22030768 0.00226946 C159.49237471 -0.00474832 188.7643911 0.01071618 218.03644524 0.03689292 C244.02597084 0.06001111 270.0154408 0.06539377 296.00497437 0.05516052 C302.66195485 0.05255837 309.31893535 0.04997332 315.97591591 0.0475626 C317.20536205 0.04711643 317.20536205 0.04711643 318.45964548 0.04666124 C340.19754432 0.03904202 361.93543862 0.04546231 383.67333543 0.05625862 C386.01302426 0.05740639 388.35271308 0.05854956 390.69240191 0.05968544 C392.24438726 0.06044069 393.79637259 0.06120633 395.34835792 0.06198245 C406.92145875 0.06763415 418.49454516 0.06631534 430.06764603 0.06175423 C443.22896665 0.05664079 456.39023342 0.06252449 469.55154063 0.08264852 C476.26501807 0.09265033 482.97839693 0.09763498 489.69188499 0.08975601 C495.84037183 0.0826878 501.98868219 0.0895308 508.1371458 0.10735964 C510.35831042 0.11139665 512.57949117 0.11041685 514.80064972 0.10384078 C534.62911539 0.05017138 553.12296177 1.87855861 568.13778687 16.50120544 C580.3090464 30.83330453 583.44537387 44.08501979 583.4052124 62.46051025 C583.40895246 64.08489893 583.4135554 65.7092858 583.41894305 67.33366984 C583.43114429 71.78240919 583.43091598 76.23107317 583.4285543 80.67982543 C583.42814541 85.48363434 583.43919209 90.28741933 583.44866943 95.09121704 C583.46526415 104.49681425 583.47077827 113.9023864 583.47189419 123.30799703 C583.4728453 130.95451799 583.47695873 138.6010307 583.48329544 146.24754906 C583.50090294 167.93657815 583.51013497 189.62558746 583.50863449 211.31462375 C583.50851462 213.06757617 583.50851462 213.06757617 583.50839233 214.85594177 C583.50831057 216.02600675 583.50822881 217.19607173 583.50814457 218.40159323 C583.5073316 237.36573702 583.52647339 256.3298014 583.55466907 275.29392222 C583.5834054 294.77568454 583.59720898 314.25740814 583.59548151 333.73919219 C583.59481792 344.67294176 583.60029704 355.60660806 583.62183762 366.54033852 C583.64005914 375.84883113 583.64438865 385.1572027 583.63081877 394.46570543 C583.62429434 399.21253896 583.62415306 403.95914033 583.64152527 408.70595169 C583.65728393 413.05670668 583.65436396 417.40704598 583.636957 421.75779101 C583.63389328 423.32636763 583.63749573 424.8949755 583.64867716 426.46351526 C583.7568745 442.72680564 579.74389035 455.82551683 568.38778687 467.75120544 C553.03252703 482.32956225 536.07111382 483.09538371 515.97822571 483.00914001 C513.6325174 483.01375388 511.28681199 483.02011004 508.94111258 483.02804899 C503.1929744 483.04295728 497.44505879 483.03939685 491.69691778 483.02784593 C484.805239 483.01504124 477.91364392 483.02556967 471.02196924 483.03669358 C457.52112327 483.05771565 444.02035318 483.05594741 430.51950005 483.04437793 C418.7051007 483.03430371 406.89072913 483.03169449 395.07632637 483.03646851 C394.29173038 483.03677405 393.50713438 483.03707959 392.69876275 483.03739439 C389.5136012 483.0386398 386.32843966 483.03991341 383.14327814 483.04123344 C353.28355873 483.05346072 323.42388756 483.04238922 293.56417559 483.02084585 C267.05117056 483.00186253 240.53824239 483.0035645 214.02523804 483.02268982 C184.21757042 483.04412004 154.40994539 483.05259532 124.60227114 483.04024076 C121.42332463 483.03895795 118.24437812 483.03770658 115.06543159 483.03646851 C114.28272963 483.0361522 113.50002766 483.03583589 112.69360745 483.03550999 C100.8876093 483.03096511 89.08164199 483.03627181 77.27564812 483.04638672 C63.8489588 483.05783302 50.42235703 483.05494461 36.9956786 483.03326374 C30.14649679 483.02256801 23.29745703 483.0181038 16.44827652 483.03186035 C10.17572894 483.04379872 3.90348145 483.03719727 -2.36903899 483.01595014 C-4.63532103 483.01149031 -6.90162854 483.01373634 -9.16789413 483.0234533 C-28.35988954 483.09941522 -43.04505814 480.90392188 -57.67471313 467.25120544 C-69.64102736 454.60110183 -72.47619063 438.90088225 -72.36341858 422.08538818 C-72.36731895 420.46024391 -72.37296526 418.83510307 -72.38018948 417.20997018 C-72.39485596 412.77770595 -72.38481577 408.3458002 -72.37045276 403.91354787 C-72.35929669 399.12074873 -72.37130073 394.32799798 -72.3802948 389.53520203 C-72.39419685 380.16019184 -72.38669399 370.78531675 -72.37161922 361.41031305 C-72.35472502 350.48650404 -72.35797359 339.56272836 -72.3617133 328.63891032 C-72.3675861 309.14661101 -72.35344192 289.65437638 -72.32876587 270.16209412 C-72.30483692 251.25777259 -72.29776622 232.35353744 -72.30825806 213.44920349 C-72.31967164 192.84723134 -72.32159263 172.24529909 -72.30715996 151.64332741 C-72.30563416 149.44598687 -72.30411381 147.24864632 -72.30259895 145.05130577 C-72.30184114 143.9702524 -72.30108332 142.88919902 -72.30030255 141.77538646 C-72.29556391 134.16463669 -72.29740811 126.55390478 -72.30166435 118.94315529 C-72.30659481 109.66801 -72.30058939 100.39294632 -72.28077006 91.1178197 C-72.27091043 86.38745389 -72.26577867 81.65721223 -72.27366257 76.92683983 C-72.28073667 72.59366726 -72.27387443 68.26074485 -72.25605894 63.92760517 C-72.25202573 62.36322798 -72.25299533 60.79882786 -72.2595778 59.23445932 C-72.29165709 50.89449697 -71.95086965 43.34923872 -68.86221313 35.50120544 C-68.50901001 34.57308044 -68.15580688 33.64495544 -67.79190063 32.68870544 C-61.05353888 18.71284404 -49.28848007 8.63002589 -34.84760344 3.41189235 C-23.25207658 -0.09310427 -12.03749958 -0.05666126 0 0 Z M-44.86221313 30.50120544 C-52.54564096 40.90847142 -54.16374346 48.67150152 -54.10272217 61.37753296 C-54.10443102 62.67800003 -54.10613987 63.9784671 -54.1079005 65.31834227 C-54.11236183 68.91687063 -54.10438712 72.51527941 -54.09434438 76.11379254 C-54.08569463 79.9985046 -54.08863112 83.8832101 -54.09014893 87.76792908 C-54.09119681 94.49477672 -54.08493027 101.22158551 -54.07367325 107.94842339 C-54.05740817 117.6742551 -54.05220921 127.40006806 -54.04969727 137.1259119 C-54.04532175 152.90604969 -54.03201652 168.68616678 -54.01309204 184.46629333 C-53.99472954 199.79376624 -53.98057484 215.12123352 -53.97207642 230.44871521 C-53.97155097 231.39375374 -53.97102552 232.33879228 -53.97048415 233.31246834 C-53.96787405 238.05352445 -53.96534664 242.7945806 -53.96286035 247.53563678 C-53.9421323 286.85751139 -53.90526493 326.1793477 -53.86221313 365.50120544 C-9.97221313 365.50120544 33.91778687 365.50120544 79.13778687 365.50120544 C79.46778687 355.60120544 79.79778687 345.70120544 80.13778687 335.50120544 C84.72048147 324.04446893 88.55688133 317.58085132 99.74325562 312.37620544 C104.58735431 310.60609434 109.09691329 310.37428397 114.23474312 310.36698437 C114.9412686 310.36463214 115.64779409 310.36227991 116.37572944 310.3598564 C118.749159 310.35318611 121.12253355 310.35362402 123.49597168 310.35403442 C125.21248993 310.35073458 126.92900741 310.34700876 128.64552391 310.34289294 C133.36744786 310.33287868 138.0893591 310.32915708 142.81129217 310.32650363 C147.90212894 310.32259893 152.99295566 310.31302076 158.08378601 310.30429077 C170.37996863 310.28453197 182.67615207 310.27446129 194.9723466 310.26556298 C200.76281368 310.26117948 206.55327984 310.25581286 212.34374619 310.25057411 C231.59204735 310.23356308 250.84034794 310.21906855 270.08865547 310.21182537 C275.08322271 310.20991548 280.07778995 310.20799515 285.07235718 310.20603943 C286.31373062 310.20555569 287.55510405 310.20507195 288.83409487 310.20457355 C308.94697131 310.19627187 329.05978831 310.17093204 349.17263879 310.13845875 C369.82156799 310.10539167 390.47046697 310.08737696 411.11942279 310.08418113 C422.71328027 310.08201581 434.30705104 310.07326372 445.90088272 310.04771996 C455.77383091 310.02601786 465.64667131 310.01796019 475.51964064 310.02768674 C480.55593509 310.0322327 485.59200713 310.03032775 490.6282711 310.01092529 C495.24249526 309.99330244 499.8563346 309.99428429 504.4705628 310.00982258 C506.1361478 310.01219996 507.8017594 310.00786834 509.46730377 309.99599393 C522.08017278 309.91167071 532.71176103 311.12611795 542.19247437 320.21604919 C548.27144442 327.35700799 550.16074897 334.93387698 550.45419312 344.11448669 C550.49608765 345.36165466 550.53798218 346.60882263 550.58114624 347.89378357 C550.62046265 349.18735779 550.65977905 350.48093201 550.70028687 351.81370544 C550.76506226 353.78307068 550.76506226 353.78307068 550.83114624 355.79222107 C550.93705854 359.02843026 551.03791106 362.26480433 551.13778687 365.50120544 C555.42778687 365.50120544 559.71778687 365.50120544 564.13778687 365.50120544 C564.2290597 325.16012472 564.29983716 284.81906023 564.34204818 244.47789679 C564.34705094 239.71401903 564.35222824 234.95014149 564.35751343 230.18626404 C564.35856267 229.23787164 564.35961191 228.28947925 564.36069295 227.3123477 C564.37809275 211.96107116 564.40962811 196.60985462 564.44639805 181.25861366 C564.48381927 165.50393623 564.50602522 149.74929019 564.51414084 133.99457014 C564.51962616 124.27497948 564.53694396 114.55555838 564.56945273 104.83601992 C564.59061519 98.16873636 564.59698299 91.50154031 564.59179237 84.83422561 C564.58923328 80.98891452 564.59312454 77.1438995 564.61460876 73.2986412 C564.63776049 69.12432169 564.62971962 64.95062969 564.61880493 60.77626038 C564.6304563 59.56806723 564.64210766 58.35987409 564.6541121 57.11506903 C564.57259635 45.57345851 561.41199648 37.99378808 553.42684937 29.69651794 C544.90969722 21.52819114 535.91207044 19.03107721 524.19510078 19.1180954 C523.24166824 19.11313588 522.28823569 19.10817637 521.30591124 19.10306656 C518.1225453 19.09015023 514.93960154 19.09848269 511.75622559 19.10679626 C509.44625612 19.10190551 507.13628911 19.09571485 504.82632625 19.08833838 C498.48716896 19.07193944 492.14813605 19.07425675 485.80896497 19.07971334 C479.67178725 19.08357106 473.53463299 19.07046018 467.39746794 19.0593402 C453.29805054 19.03444941 439.19867105 19.02991024 425.09923519 19.03180617 C414.21093585 19.03317993 403.32264964 19.02935823 392.43435287 19.0218811 C390.86931983 19.02083076 389.30428677 19.01978315 387.73925372 19.01873824 C386.96236328 19.0182189 386.18547283 19.01769955 385.38504025 19.01716447 C384.21755839 19.01638426 384.21755839 19.01638426 383.02649105 19.01558828 C382.24685491 19.01506429 381.46721877 19.0145403 380.66395729 19.01400043 C358.74044459 18.9994201 336.81693671 18.99113336 314.89341927 18.99575043 C313.65406082 18.99600836 313.65406082 18.99600836 312.38966483 18.9962715 C308.20208104 18.99716038 304.01449726 18.99810519 299.82691349 18.99906951 C298.99526504 18.99926054 298.1636166 18.99945158 297.30676668 18.9996484 C295.62497244 19.00003549 293.9431782 19.00042582 292.26138396 19.00081938 C266.09140532 19.00678968 239.9215151 18.99134856 213.7515564 18.95921326 C184.3405602 18.92312865 154.92962007 18.90380458 125.51860034 18.90875196 C122.3820177 18.90922193 119.24543505 18.90963219 116.10885239 18.91000366 C114.9504171 18.91015724 114.9504171 18.91015724 113.76857909 18.91031392 C102.11589764 18.91150819 90.46327684 18.89954896 78.81061172 18.88085938 C65.55689679 18.85961199 52.30330896 18.85578319 39.04958834 18.87515897 C32.28759747 18.88456968 25.52587495 18.88543791 18.76390076 18.86480331 C12.57199723 18.84611725 6.38055468 18.85057109 0.18866883 18.87334913 C-2.04945504 18.87754074 -4.28761409 18.87331617 -6.52570079 18.85975319 C-20.72166037 18.77959371 -34.83371128 18.77670695 -44.86221313 30.50120544 Z " fill="#1C1E1E" transform="translate(256.8622131347656,108.49879455566406)"/>
<path d="M0 0 C0.70748894 -0.00581376 1.41497788 -0.01162753 2.14390588 -0.01761746 C4.51487416 -0.03221679 6.88480707 -0.0183334 9.25576782 -0.00457001 C10.97259233 -0.00917897 12.6894129 -0.01553185 14.4062252 -0.02347898 C19.1242474 -0.04019614 23.84194646 -0.0319151 28.5599699 -0.01953411 C33.64798371 -0.01049572 38.73594138 -0.02444733 43.82394409 -0.0354538 C53.79145995 -0.05325653 63.75885545 -0.04939121 73.72637606 -0.03780323 C81.8259254 -0.02877609 89.92544097 -0.0275418 98.0249939 -0.0318985 C99.1769989 -0.03251143 100.32900389 -0.03312436 101.51591814 -0.03375587 C103.85606655 -0.03503475 106.19621496 -0.0363316 108.53636336 -0.03764623 C130.48893634 -0.04905717 152.44144255 -0.03593025 174.39400458 -0.01444477 C193.23744479 0.00342666 212.08078643 0.0003227 230.92422485 -0.01811981 C252.79730922 -0.03951743 274.67033505 -0.04795849 296.54342842 -0.03567076 C298.87505213 -0.03439654 301.20667584 -0.03313905 303.53829956 -0.0318985 C304.68555523 -0.0312814 305.8328109 -0.03066429 307.0148319 -0.03002849 C315.10628689 -0.02657227 323.1977048 -0.03240981 331.28915405 -0.04181671 C341.14760032 -0.05302575 351.00591916 -0.05001968 360.8643508 -0.02869374 C365.89596922 -0.01816861 370.92737507 -0.01408643 375.958992 -0.02729034 C380.56306788 -0.03918974 385.16673366 -0.03269225 389.77077222 -0.01138014 C391.4382484 -0.00690366 393.10575906 -0.00920374 394.77321315 -0.01888329 C397.03706825 -0.03101913 399.29951238 -0.01860253 401.56329346 0 C402.82147196 0.00064941 404.07965046 0.00129882 405.37595558 0.00196791 C410.24653837 0.71903056 413.37400414 2.90156438 416.59414673 6.56586456 C418.50920563 9.69043436 418.90827698 12.26752851 418.92208862 15.84792328 C418.92779877 16.73527664 418.93350891 17.62263 418.93939209 18.53687286 C418.94050995 19.50783905 418.94162781 20.47880524 418.94277954 21.47919464 C418.94774445 22.50387344 418.95270935 23.52855225 418.95782471 24.58428192 C418.9724522 27.98049334 418.97924936 31.37665805 418.98477173 34.77289581 C418.99052273 37.13078055 418.99628047 39.48866528 419.00204468 41.84654999 C419.01255636 46.79376188 419.01839793 51.74095752 419.0218811 56.68817902 C419.02736589 63.02686719 419.0513931 69.36534057 419.07985306 75.70396137 C419.09847834 80.57585528 419.10368499 85.44769744 419.10521698 90.31962395 C419.10824432 92.65639864 419.11627553 94.9931724 419.12940216 97.32991219 C419.1464598 100.59989123 419.14458284 103.86934538 419.13809204 107.13935089 C419.14730682 108.10424438 419.15652161 109.06913788 419.16601562 110.06327057 C419.13344081 115.3030153 418.73194281 118.98061261 415.78164673 123.50336456 C410.51290943 128.4947999 405.93337763 129.75217722 398.77001476 129.76342678 C398.07272073 129.76723245 397.37542669 129.77103812 396.65700254 129.77495912 C394.31494579 129.7852849 391.97313097 129.78136695 389.63105774 129.77751923 C387.93714865 129.78197109 386.24324163 129.78728496 384.54933769 129.79338795 C379.89001649 129.80758444 375.23076195 129.80923093 370.57142222 129.80879104 C365.54811954 129.81043778 360.52484444 129.82350154 355.5015564 129.83498383 C344.51612888 129.85784323 333.53072067 129.8657553 322.54527259 129.87081027 C315.68750009 129.8740659 308.82973321 129.88058752 301.97196388 129.88781166 C282.98872782 129.90737804 264.00549698 129.92378229 245.02225018 129.92668819 C243.80725005 129.92687576 242.59224993 129.92706333 241.34043162 129.92725659 C238.87728425 129.92762284 236.41413688 129.92798654 233.95098951 129.9283477 C232.11689994 129.92862192 232.11689994 129.92862192 230.24575806 129.92890167 C228.40943304 129.9291725 228.40943304 129.9291725 226.53601054 129.92944879 C206.69268129 129.93299157 186.84946049 129.96002027 167.00616886 129.99739956 C146.63862261 130.03545978 126.2711302 130.0548455 105.90354759 130.05514771 C94.4657059 130.05573276 83.0279936 130.06425556 71.59018517 130.09314537 C61.85217458 130.11762855 52.11434059 130.12496277 42.37630757 130.10989784 C37.40717365 130.10271668 32.43838865 130.10363844 27.46929359 130.12630844 C22.91990988 130.14686498 18.37114409 130.14432928 13.82176731 130.1234336 C12.17642405 130.11993235 10.5310365 130.1248756 8.88575133 130.13913804 C-7.09987747 130.26877609 -7.09987747 130.26877609 -13.21835327 124.50336456 C-16.44109463 120.96874501 -17.33959969 117.84350505 -17.36552429 113.12084198 C-17.3726796 112.22507446 -17.3798349 111.32930695 -17.38720703 110.40639496 C-17.38989594 109.42607803 -17.39258484 108.44576111 -17.39535522 107.43573761 C-17.40192642 106.40130524 -17.40849762 105.36687286 -17.41526794 104.30109406 C-17.43500459 100.8724231 -17.4466637 97.44379592 -17.45663452 94.01508331 C-17.46071005 92.84483927 -17.46478558 91.67459522 -17.4689846 90.46888924 C-17.48984575 84.27636262 -17.50414795 78.08385818 -17.51351929 71.89130402 C-17.52459071 65.49201912 -17.55899936 59.09308128 -17.59869099 52.69391918 C-17.62481989 47.77570188 -17.63320778 42.85756779 -17.63680077 37.93928719 C-17.64167543 35.58017187 -17.6533143 33.22106048 -17.67183876 30.86201286 C-17.69615269 27.56078591 -17.69527907 24.26046395 -17.68832397 20.95917511 C-17.70753906 19.49780876 -17.70753906 19.49780876 -17.72714233 18.00691986 C-17.68367538 12.34663344 -17.16966982 8.87730848 -13.21835327 4.50336456 C-8.69009946 0.92367099 -5.74406045 0.0029648 0 0 Z " fill="#F3F3F2" transform="translate(371.2183532714844,435.4966354370117)"/>
<path d="M0 0 C12.54 0 25.08 0 38 0 C47.17827355 12.62012613 47.17827355 12.62012613 50.7421875 18.125 C51.35001572 19.05551178 51.35001572 19.05551178 51.97012329 20.00482178 C52.82965781 21.3210844 53.68799239 22.63813132 54.54516602 23.95593262 C56.86494085 27.52162286 59.19465263 31.08081544 61.5234375 34.640625 C61.99251526 35.35808899 62.46159302 36.07555298 62.94488525 36.8147583 C67.09165396 43.1523274 71.28777834 49.4557161 75.5 55.75 C83.69562498 68.00884278 91.82119456 80.3135253 99.9375 92.625 C100.55415527 93.55985229 101.17081055 94.49470459 101.80615234 95.45788574 C103.60989205 98.19272369 105.41253992 100.92827812 107.21484375 103.6640625 C107.73525742 104.45303925 108.25567108 105.24201599 108.79185486 106.05490112 C114.24472931 114.33831662 119.61188906 122.67291945 125 131 C125.33 88.1 125.66 45.2 126 1 C138.54 1 151.08 1 164 1 C164 65.02 164 129.04 164 195 C151.79 195 139.58 195 127 195 C116.40317532 183.39073984 116.40317532 183.39073984 112.52856445 175.09423828 C109.87552324 169.72374725 106.4029977 164.9160054 103 160 C101.52833771 157.82661028 100.05833081 155.65209888 98.58984375 153.4765625 C97.04049058 151.19173802 95.48888898 148.9084425 93.9375 146.625 C93.09910355 145.39023001 92.26072495 144.1554479 91.42236328 142.9206543 C85.81412237 134.66226126 80.19533988 126.41108701 74.56860352 118.1652832 C69.17680697 110.26325032 63.79782403 102.35253774 58.42333984 94.4387207 C51.97126979 84.94363029 45.48260393 75.47457497 39 66 C38.67 108.57 38.34 151.14 38 195 C25.46 195 12.92 195 0 195 C0 130.65 0 66.3 0 0 Z " fill="#1B1E1E" transform="translate(126,669)"/>
<path d="M0 0 C3.48606453 1.40831542 6.68495911 3.24756922 9.9375 5.125 C11.37778564 5.93372559 11.37778564 5.93372559 12.84716797 6.75878906 C15.90936565 8.48694531 18.95653149 10.23909098 22 12 C22.96212402 12.5559082 23.92424805 13.11181641 24.91552734 13.68457031 C29.8376299 16.53609892 34.74743596 19.40807786 39.65234375 22.2890625 C46.4682636 26.28559715 53.32448656 30.21018984 60.1875 34.125 C60.78249298 34.46462769 61.37748596 34.80425537 61.99050903 35.1541748 C67.82053526 38.48199323 73.65353504 41.80452274 79.4921875 45.1171875 C84.67244968 48.05918638 89.84074564 51.02131689 95 54 C95.55568665 54.32049316 96.11137329 54.64098633 96.68389893 54.97119141 C100.3910236 57.11086562 104.09132604 59.26178891 107.78488159 61.42480469 C109.00092625 62.13534892 110.21861597 62.84308603 111.4380188 63.54785156 C113.14304186 64.53428061 114.8411979 65.53255 116.5390625 66.53125 C117.52084473 67.10423828 118.50262695 67.67722656 119.51416016 68.26757812 C122.73712062 70.51371125 124.71638185 72.45159819 125.43359375 76.3671875 C125.43488281 77.19476563 125.43617188 78.02234375 125.4375 78.875 C125.45683594 79.69742188 125.47617187 80.51984375 125.49609375 81.3671875 C124.57797081 86.23974547 122.63968409 88.85445559 118.65307617 91.63964844 C115.59879415 93.48296415 112.50217042 95.22073378 109.375 96.9375 C108.20674866 97.59296574 107.03936403 98.24997837 105.87280273 98.90844727 C103.45193722 100.27321182 101.0275077 101.63128677 98.60009766 102.984375 C93.05609036 106.08050213 87.56029121 109.26025973 82.0625 112.4375 C80.46027588 113.36067017 80.46027588 113.36067017 78.82568359 114.30249023 C71.01552378 118.81015176 63.25075456 123.39108113 55.5 128 C43.3435539 135.22834755 31.12345252 142.33474249 18.84814453 149.359375 C16.2301001 150.86745477 13.62653982 152.39723566 11.02734375 153.9375 C9.60158583 154.77087325 8.17580656 155.60420998 6.75 156.4375 C6.13680908 156.80931396 5.52361816 157.18112793 4.8918457 157.56420898 C1.10687481 159.75245405 -1.64376113 160.51466113 -6 160 C-10.42816276 157.65567854 -12.79271829 155.46666333 -15 151 C-15.37752342 148.18106079 -15.37752342 148.18106079 -15.38095093 145.04150391 C-15.3894104 143.84704651 -15.39786987 142.65258911 -15.40658569 141.42193604 C-15.400513 140.11996277 -15.39444031 138.8179895 -15.38818359 137.4765625 C-15.39225082 136.08493641 -15.39759355 134.69331354 -15.40411377 133.30169678 C-15.41777534 129.52896945 -15.41249361 125.75648859 -15.40297651 121.98375702 C-15.39537387 118.03294721 -15.4024272 114.08215831 -15.40713501 110.13134766 C-15.41259081 103.49703183 -15.4054056 96.86281623 -15.39111328 90.22851562 C-15.37478706 82.56163055 -15.38007569 74.89498482 -15.3965925 67.22810555 C-15.41021241 60.64197302 -15.41212457 54.05591249 -15.40427649 47.46977043 C-15.39960273 43.53768873 -15.3989669 39.60571947 -15.40888596 35.67364502 C-15.41756074 31.97667503 -15.41152464 28.28001322 -15.39420319 24.58307648 C-15.38835303 22.58140993 -15.39724954 20.57971728 -15.40658569 18.57806396 C-15.39812622 17.38360657 -15.38966675 16.18914917 -15.38095093 14.95849609 C-15.37981985 13.92244232 -15.37868877 12.88638855 -15.37752342 11.81893921 C-14.78825471 7.41891375 -12.79447552 4.81654429 -9.75 1.6875 C-6.0773337 -0.56618159 -4.29932465 -0.46352758 0 0 Z " fill="#F3F3F2" transform="translate(459,222)"/>
<path d="M0 0 C12.54 0 25.08 0 38 0 C37.97905273 2.72411133 37.95810547 5.44822266 37.93652344 8.25488281 C37.87001648 17.29125304 37.8259703 26.32763454 37.79275131 35.36418533 C37.77194482 40.83895141 37.74375469 46.31346508 37.69824219 51.78808594 C37.65453608 57.07899175 37.63081081 62.36965594 37.62049103 67.66072845 C37.61314391 69.67159575 37.59879754 71.68245098 37.57707977 73.69321442 C37.26937759 91.82044513 37.26937759 91.82044513 44.75 108 C50.59529263 113.87401642 55.96460303 115.42973963 64.25 115.625 C73.27591749 115.56119525 80.15160776 113.0462037 87.1484375 107.20703125 C97.44790951 96.66854196 96.60349215 82.93567273 96.609375 69.23828125 C96.6243765 67.23616715 96.64110774 65.23406533 96.65948486 63.23197937 C96.70294941 57.99601636 96.72311095 52.76022024 96.73822021 47.52410889 C96.75786699 42.16766578 96.79982827 36.81140094 96.83984375 31.45507812 C96.9149195 20.97007716 96.963282 10.48520552 97 0 C109.54 0 122.08 0 135 0 C135 48.18 135 96.36 135 146 C122.46 146 109.92 146 97 146 C96.505 135.605 96.505 135.605 96 125 C94.3603125 127.2275 94.3603125 127.2275 92.6875 129.5 C83.57418745 140.84744031 71.37135645 147.26256735 57 149 C42.47074015 150.15343706 27.78762309 146.98279965 16.2421875 137.80859375 C5.4116056 127.73776909 0.74847657 114.97100461 -0.16128159 100.42049026 C-0.41408482 93.2828932 -0.34482982 86.14447627 -0.29296875 79.00390625 C-0.2873618 76.71606222 -0.28309691 74.42821455 -0.28010559 72.1403656 C-0.26874336 66.16785441 -0.23935187 60.19556796 -0.20599365 54.22314453 C-0.17510527 48.10908039 -0.16156043 41.99497934 -0.14648438 35.88085938 C-0.11447267 23.92045914 -0.06177669 11.96028356 0 0 Z " fill="#1B1E1D" transform="translate(319,718)"/>
<path d="M0 0 C12.54 0 25.08 0 38 0 C37.97643433 4.04072754 37.97643433 4.04072754 37.95239258 8.16308594 C37.90250883 17.09969888 37.86947625 26.03631824 37.84456348 34.97303391 C37.82895978 40.38720869 37.80781893 45.80123987 37.77368164 51.21533203 C37.74089849 56.44787238 37.72310723 61.68027527 37.71536827 66.91291046 C37.70985862 68.9014324 37.69910031 70.88994749 37.68280983 72.87841034 C36.98753353 92.17133435 36.98753353 92.17133435 45 109 C53.47599016 115.27978218 61.72839145 115.93854922 72 115 C79.61314281 113.22002577 86.42520764 108.08900028 90.57421875 101.5 C94.29196127 94.34148144 95.14849543 88.30188286 95.20532227 80.26245117 C95.21522186 79.39365326 95.22512146 78.52485535 95.23532104 77.62973022 C95.2668251 74.76750381 95.29164951 71.90526081 95.31640625 69.04296875 C95.33698536 67.05470863 95.35798208 65.06645278 95.37937927 63.07820129 C95.43450108 57.85205559 95.48395391 52.62587106 95.53222656 47.3996582 C95.58251389 42.0639298 95.63816217 36.7282576 95.69335938 31.39257812 C95.80081996 20.92843171 95.90179614 10.46423739 96 0 C108.54 0 121.08 0 134 0 C134 48.18 134 96.36 134 146 C121.46 146 108.92 146 96 146 C95.505 135.605 95.505 135.605 95 125 C93.865625 126.505625 92.73125 128.01125 91.5625 129.5625 C83.83346636 139.19993701 74.26712497 145.80865425 62 148 C45.82944682 149.44303734 30.26012072 148.2594944 17 138 C6.0213609 128.00504697 0.78943864 115.21115784 -0.16320419 100.47553253 C-0.41793165 93.35243316 -0.34459986 86.22768085 -0.29296875 79.1015625 C-0.28736287 76.81228923 -0.28309747 74.52301231 -0.28010559 72.23373413 C-0.26873491 66.25298864 -0.23933579 60.27246704 -0.20599365 54.29180908 C-0.17512385 48.17113268 -0.16156434 42.05041957 -0.14648438 35.9296875 C-0.11445768 23.95301158 -0.06175443 11.97655957 0 0 Z " fill="#1C1F1E" transform="translate(620,718)"/>
<path d="M0 0 C9.47743134 8.43655738 12.77743082 18.77586952 15 31 C3.45 31 -8.1 31 -20 31 C-21.32 28.03 -22.64 25.06 -24 22 C-28.72460015 17.01292206 -35.14275997 14.93030558 -41.875 14.53125 C-43.58316419 14.50505116 -45.29164275 14.49482316 -47 14.5 C-47.85078125 14.47164062 -48.7015625 14.44328125 -49.578125 14.4140625 C-55.92188248 14.39460312 -60.08076299 15.9812667 -65 20 C-68.02908433 23.50237876 -68.49780942 26.58019952 -68.26953125 31.078125 C-67.83389229 34.18442023 -67.13798714 35.6676504 -65 38 C-56.46711265 42.55278218 -47.16653861 44.29665972 -37.8125 46.4375 C2.6811869 55.71806213 2.6811869 55.71806213 13 71 C18.67407722 80.06839128 18.46262079 92.08131064 16.3046875 102.2890625 C12.09012385 114.86192045 3.76898643 124.21130168 -7.9375 130.3125 C-13.18579426 132.76081932 -18.36258095 134.68023213 -24 136 C-25.26263672 136.30744141 -25.26263672 136.30744141 -26.55078125 136.62109375 C-48.18422267 141.05793817 -71.62276551 138.00773941 -90.25 125.75 C-97.72368965 120.21081844 -103.4951901 113.65134653 -107 105 C-107.4125 104.01 -107.825 103.02 -108.25 102 C-109 99 -109 99 -109 91 C-97.12 91 -85.24 91 -73 91 C-69 100 -69 100 -68 103 C-66.23778163 104.14020802 -66.23778163 104.14020802 -64 105 C-63.15566406 105.35320312 -62.31132813 105.70640625 -61.44140625 106.0703125 C-50.71269579 110.00077631 -39.61848955 110.86840495 -29 106 C-26.07205632 104.0998243 -23.59160235 102.18320471 -22 99 C-21.87851695 97.37834248 -21.82456348 95.75115673 -21.8125 94.125 C-21.79832031 93.26132812 -21.78414062 92.39765625 -21.76953125 91.5078125 C-22.01863174 88.7972614 -22.49685304 87.25960079 -24 85 C-32.53219523 78.64896746 -45.17013032 77.50895162 -55.3125 75.625 C-72.06997322 72.37108582 -88.90590872 68.00320855 -100 54 C-106.006641 44.07858302 -107.21248005 34.43755424 -106 23 C-102.84199324 10.78994799 -94.90976923 1.48960882 -85 -6 C-59.53498288 -20.83006055 -23.22555503 -17.81992825 0 0 Z " fill="#1C1E1E" transform="translate(583,729)"/>
<path d="M0 0 C1.31669678 0.01281006 2.63339355 0.02562012 3.98999023 0.03881836 C22.04397886 0.41585214 37.59318279 5.36603546 50.90625 18.1171875 C57.90819912 25.85484866 62.0625 35.03239196 62.0625 45.5 C50.5125 45.5 38.9625 45.5 27.0625 45.5 C26.0725 42.53 25.0825 39.56 24.0625 36.5 C19.53448067 31.72042404 13.77454527 29.40328359 7.28515625 29.06640625 C5.56518849 29.04932483 3.84499401 29.0483065 2.125 29.0625 C1.26970703 29.04251953 0.41441406 29.02253906 -0.46679688 29.00195312 C-7.3954563 29.00723814 -12.81648375 30.51548943 -17.90234375 35.37890625 C-20.08276013 39.84670284 -19.70281311 44.69040294 -18.9375 49.5 C-12.55096461 58.25867711 3.00859018 59.19482753 12.9375 61.4375 C48.33150606 69.47146104 48.33150606 69.47146104 59.0625 83.5 C65.30399573 94.00001625 66.87596979 104.22916622 63.875 116.25 C60.00929275 128.50322804 52.62116653 137.79102937 41.2043457 143.89404297 C21.16387514 153.95074969 -3.52684848 156.11830822 -25.00439453 149.18457031 C-37.98050851 144.58934126 -49.92554947 136.63943935 -56.9375 124.5 C-60.14319915 117.66785368 -60.9375 113.28339546 -60.9375 105.5 C-49.0575 105.5 -37.1775 105.5 -24.9375 105.5 C-20.9375 114.5 -20.9375 114.5 -20.9375 116.5 C-8.27639874 122.88784068 2.57705476 125.65448796 16.5703125 121.4921875 C20.6825056 119.85504479 24.03390951 117.55718098 26.0625 113.5 C26.18398305 111.87834248 26.23793652 110.25115673 26.25 108.625 C26.26417969 107.76132812 26.27835938 106.89765625 26.29296875 106.0078125 C26.04465428 103.30581438 25.54527131 101.76085922 24.0625 99.5 C14.83812115 93.59639753 3.23687226 92.06935703 -7.38842773 90.10205078 C-23.88742725 87.01431541 -41.07720471 82.30500223 -51.9375 68.5 C-58.12419337 58.13007613 -59.80175119 47.17143125 -57.25390625 35.3203125 C-52.81992322 22.331134 -44.344123 12.70421776 -32.37670898 6.17724609 C-21.93462364 1.08481149 -11.49192203 -0.17052958 0 0 Z " fill="#1C1E1E" transform="translate(834.9375,714.5)"/>
<path d="M0 0 C43.89 0 87.78 0 133 0 C133.33 20.13 133.66 40.26 134 61 C136.2615628 69.36170905 136.2615628 69.36170905 140.1875 76.125 C140.71730469 76.87007812 141.24710938 77.61515625 141.79296875 78.3828125 C142.19128906 78.91648437 142.58960938 79.45015625 143 80 C128.21321362 80.11717625 113.42648929 80.20515504 98.63933182 80.25906086 C91.77225405 80.28476368 84.90546596 80.31976061 78.03857422 80.37719727 C71.40554235 80.43265106 64.77273119 80.46146371 58.1394577 80.47438622 C55.61502105 80.48358959 53.0905999 80.5015614 50.56629181 80.52865028 C47.0168216 80.56520854 43.46857497 80.56993394 39.91894531 80.56762695 C38.88675369 80.58560333 37.85456207 80.60357971 36.79109192 80.62210083 C27.19787283 80.55509982 17.58114867 77.54241812 10.5234375 70.77734375 C-6.13491542 51.34259868 0 23.42507012 0 0 Z " fill="#F3F2F2" transform="translate(203,493)"/>
<path d="M0 0 C1.48569394 -0.0069131 2.97137763 -0.01644222 4.45703983 -0.02836347 C8.54093533 -0.05344563 12.62399124 -0.0410161 16.70789003 -0.02244616 C21.11154188 -0.0088906 25.51504767 -0.02981484 29.91867065 -0.04632568 C38.54584816 -0.07303231 47.17271281 -0.06723092 55.79990268 -0.04984984 C62.81016025 -0.03631 69.82033003 -0.03445727 76.83059692 -0.04099274 C77.82760591 -0.04191214 78.82461489 -0.04283153 79.85183626 -0.04377879 C81.87711996 -0.04569711 83.90240364 -0.04764239 85.92768729 -0.04961434 C104.92734551 -0.06673147 123.92683015 -0.04703935 142.92645991 -0.01481214 C159.23580957 0.01199516 175.54490301 0.00733924 191.85424805 -0.02032471 C210.78501703 -0.05241999 229.71563381 -0.06508344 248.6464262 -0.04665112 C250.66433904 -0.04473979 252.68225191 -0.04285357 254.70016479 -0.04099274 C256.18951659 -0.03960426 256.18951659 -0.03960426 257.7089563 -0.03818773 C264.71234953 -0.03300302 271.71564636 -0.04176044 278.71902466 -0.05587006 C287.25166114 -0.07268245 295.78396637 -0.06817752 304.3165648 -0.03618559 C308.67172751 -0.02039566 313.02633757 -0.01427712 317.38149643 -0.03408051 C321.36652362 -0.05192707 325.35048467 -0.04219106 329.33541477 -0.01021519 C330.77880639 -0.00349893 332.22228762 -0.00695456 333.66562188 -0.02146992 C344.4378564 -0.12151532 344.4378564 -0.12151532 347.73288155 2.07119894 C349.58570495 4.19880202 350.64921348 6.18921707 351.21069336 8.95721436 C351.10499023 9.59401123 350.99928711 10.23080811 350.89038086 10.88690186 C350.81045898 11.52885498 350.73053711 12.17080811 350.64819336 12.83221436 C349.30983052 15.75766232 347.41172536 16.97621629 344.76538086 18.76190186 C341.85463524 19.26329851 341.85463524 19.26329851 338.5730896 19.26526642 C336.69219855 19.2809129 336.69219855 19.2809129 334.77330971 19.29687548 C333.38443397 19.28822752 331.99556055 19.2792009 330.60668945 19.26983643 C329.12925285 19.27444517 327.65182083 19.28079791 326.17439842 19.2887454 C322.11346022 19.30546571 318.05289733 19.29718025 313.99195766 19.28480053 C309.61287817 19.27576335 305.23386396 19.28971313 300.85479736 19.30072021 C292.27580219 19.31852429 283.69694684 19.31465706 275.11794615 19.30306965 C268.14679534 19.29404302 261.17568378 19.29280799 254.20452881 19.29716492 C253.21307055 19.29777785 252.22161229 19.29839078 251.20010984 19.29902229 C249.18610015 19.30030116 247.17209048 19.30159802 245.15808082 19.30291265 C226.26433009 19.31432398 207.37065694 19.30119607 188.47691894 19.27971119 C172.25858093 19.26183971 156.04035743 19.26494366 139.82202148 19.28338623 C120.99675167 19.30478318 102.17154988 19.3132253 83.34626961 19.30093718 C81.33959072 19.29966295 79.33291182 19.29840547 77.32623291 19.29716492 C76.33885993 19.29654781 75.35148696 19.29593071 74.33419359 19.29529491 C67.36989421 19.29183848 60.40563792 19.29767666 53.44134521 19.30708313 C44.95635396 19.31829143 36.47151076 19.31528772 27.9865365 19.29396015 C23.65577958 19.28343396 19.32526967 19.27935451 14.99451447 19.29255676 C11.03190678 19.30445419 7.06977565 19.29796235 3.10721135 19.27664655 C1.6718891 19.27216918 0.2365268 19.27447221 -1.19876981 19.28414971 C-3.14659491 19.29627802 -5.09453241 19.28146946 -7.04232788 19.26526642 C-8.12523794 19.26461701 -9.208148 19.2639676 -10.32387352 19.26329851 C-13.94178694 18.64008717 -15.61536197 17.28250162 -18.23461914 14.76190186 C-19.68609817 11.8589438 -19.6070094 9.98928406 -19.23461914 6.76190186 C-15.05567202 -1.30940719 -8.21534382 -0.0826203 0 0 Z " fill="#1A1C1C" transform="translate(406.234619140625,471.23809814453125)"/>
<path d="M0 0 C0.96598293 -0.00438225 1.93196586 -0.00876451 2.927221 -0.01327956 C6.18457075 -0.0267017 9.44189343 -0.03285405 12.69926453 -0.03897095 C15.02639388 -0.04686914 17.35352199 -0.05513791 19.6806488 -0.06375122 C27.34008103 -0.0900011 34.9995188 -0.10528046 42.65898132 -0.11953735 C45.29195344 -0.12489556 47.92492553 -0.13027306 50.55789757 -0.13566971 C61.50652359 -0.15730156 72.45514829 -0.17619151 83.40379047 -0.1872921 C86.24560869 -0.19022187 89.08742687 -0.19318352 91.929245 -0.19619751 C92.63557814 -0.19694356 93.34191129 -0.19768961 94.06964847 -0.19845827 C105.51520452 -0.21111548 116.96060534 -0.24434308 128.40608881 -0.28599934 C140.15265623 -0.32840156 151.89914413 -0.35198509 163.64578789 -0.35721266 C170.24288617 -0.36087331 176.83972132 -0.37297074 183.4367466 -0.4053154 C189.64115543 -0.43529879 195.84514059 -0.44174244 202.04960632 -0.42993164 C204.32929243 -0.4297101 206.60899765 -0.43808117 208.88861656 -0.45558548 C211.99640954 -0.47815388 215.10265016 -0.47003877 218.21044922 -0.45410156 C219.11667552 -0.46798365 220.02290182 -0.48186574 220.95658952 -0.49616849 C225.42667072 -0.43952437 227.22290972 -0.29516869 230.85107708 2.54932213 C232.83973199 5.21287537 233.50048376 6.3815216 233.48320007 9.65390015 C233.50769226 10.38608765 233.53218445 11.11827515 233.55741882 11.87265015 C232.3732581 15.41905969 229.96096788 17.36386477 226.79570007 19.15390015 C223.57370875 19.86413904 220.43758562 19.82547187 217.14834595 19.78208923 C216.18302887 19.78918362 215.21771179 19.79627801 214.22314268 19.80358738 C210.99163259 19.821176 207.76132385 19.8030575 204.52983093 19.78500366 C202.21195935 19.79014208 199.89409167 19.79742277 197.57623291 19.8066864 C191.28291788 19.82521706 184.99002594 19.81225129 178.69672847 19.7925961 C172.11403701 19.77622426 165.53137266 19.78502037 158.94866943 19.79011536 C147.89492799 19.79555577 136.84134621 19.77886171 125.78764343 19.75082397 C114.41615269 19.72198059 103.04490292 19.71490648 91.67338562 19.73031616 C77.96600233 19.7488658 64.25879318 19.74714189 50.55140877 19.72810173 C45.31664111 19.72122333 40.081963 19.7222718 34.84719658 19.72964668 C28.68540162 19.73729829 22.52395447 19.72521967 16.36221886 19.69779778 C14.09868146 19.69090142 11.83511166 19.69082928 9.57157516 19.69801331 C6.48601662 19.70667907 3.40153859 19.69079995 0.31607056 19.66856384 C-0.58353632 19.67680461 -1.48314319 19.68504538 -2.41001087 19.69353586 C-6.54138896 19.63843485 -8.66394824 19.49372958 -12.23682308 17.24673367 C-14.79554606 14.5249831 -15.16080246 13.61497331 -15.51679993 9.84140015 C-15.15554051 5.57853904 -14.18437939 4.13397961 -11.20429993 1.15390015 C-7.76072166 -0.56788898 -3.79045512 0.0020667 0 0 Z " fill="#1A1C1C" transform="translate(402.2042999267578,516.8460998535156)"/>
<path d="M0 0 C187.44 0 374.88 0 568 0 C564.55892015 3.44107985 563.248043 3.3541564 558.57301691 3.39302543 C557.68086016 3.38514439 556.78870341 3.37726335 555.8695116 3.36914349 C554.91887243 3.37260502 553.96823326 3.37606655 552.98878685 3.37963298 C549.77287205 3.38763395 546.55739927 3.37406513 543.34150696 3.36076355 C541.02490371 3.36207061 538.70830089 3.36469519 536.39170045 3.36853105 C530.67329641 3.37455987 524.95502943 3.36656714 519.23664155 3.35280902 C512.39003423 3.33712572 505.54346021 3.33883992 498.6968393 3.34124239 C486.06050501 3.34518805 473.42421772 3.33514488 460.78789711 3.31719017 C448.27234986 3.29945255 435.75682217 3.28789506 423.24126244 3.28463173 C422.46372811 3.28442551 421.68619379 3.28421929 420.88509782 3.28400682 C416.93655951 3.28299185 412.98802119 3.28208769 409.03948285 3.2812262 C381.05584959 3.27492124 353.0722419 3.25469881 325.08862305 3.22631836 C297.89917131 3.19877512 270.70972656 3.17751936 243.52026367 3.16479492 C242.68249288 3.16440034 241.8447221 3.16400576 240.98156431 3.16359923 C232.56849587 3.15964375 224.15542737 3.15581629 215.74235882 3.15208265 C198.60323782 3.14447356 181.46411728 3.1360098 164.32499695 3.12702942 C163.53692953 3.12661755 162.74886212 3.12620568 161.93691387 3.12578133 C109.29126515 3.098169 56.64563106 3.0505699 4 3 C4 2.34 4 1.68 4 1 C2.68 0.67 1.36 0.34 0 0 Z " fill="#E6E6E6" transform="translate(227,591)"/>
<path d="M0 0 C1.41409775 -0.00173077 1.41409775 -0.00173077 2.85676312 -0.0034965 C6.05166333 -0.00616727 9.24651427 -0.00163721 12.44141197 0.00279331 C14.74065201 0.0023577 17.03989199 0.00148299 19.33913171 0.00020415 C25.68529591 -0.00204287 32.03144338 0.00198328 38.37760544 0.00698221 C44.50977839 0.01132979 50.64195142 0.01002286 56.77412544 0.00930037 C69.32295858 0.00798474 81.87178645 0.01133442 94.42061806 0.01731777 C106.85046604 0.02322924 119.28031183 0.02708259 131.71016121 0.02817059 C132.48221889 0.02823933 133.25427656 0.02830806 134.04972993 0.02837889 C137.97041703 0.02871721 141.89110412 0.0290186 145.81179123 0.02930576 C173.60185632 0.03140771 201.39191856 0.03814934 229.18198204 0.04760838 C256.18426053 0.05678867 283.18653824 0.06387431 310.18881798 0.06811619 C311.02074407 0.06824771 311.85267016 0.06837924 312.70980613 0.06851475 C321.06414064 0.06983324 329.41847516 0.07110906 337.77280968 0.07235361 C354.79245043 0.07489001 371.81209113 0.07771126 388.8317318 0.08070469 C389.61431455 0.08084198 390.3968973 0.08097927 391.20319468 0.08112072 C443.48714063 0.09032565 495.77108494 0.1061921 548.05502892 0.12304783 C548.05502892 1.11304783 548.05502892 2.10304783 548.05502892 3.12304783 C494.98059953 3.15726897 441.90616919 3.18911221 388.8317318 3.20773411 C387.65431025 3.20814828 387.65431025 3.20814828 386.45310241 3.20857082 C369.39594675 3.214556 352.33879098 3.22009645 335.28163502 3.22517849 C326.91736265 3.22767326 318.55309031 3.23026635 310.18881798 3.23291111 C308.94026918 3.23330339 308.94026918 3.23330339 307.66649718 3.23370359 C280.66496442 3.24223322 253.66344 3.257261 226.66191229 3.27564227 C198.92489241 3.29449002 171.18787715 3.30681466 143.45085098 3.31087781 C139.53728771 3.31145416 135.62372446 3.31210543 131.71016121 3.31280231 C130.93988124 3.31293716 130.16960127 3.31307201 129.37597948 3.31321094 C116.95379714 3.31557857 104.53162906 3.32486596 92.10945254 3.3367119 C79.63478473 3.34846127 67.16013112 3.35299011 54.68545796 3.35005058 C47.92080294 3.34865904 41.15619243 3.35080164 34.39154434 3.36145878 C28.20853752 3.37112903 22.02560127 3.37172364 15.84259133 3.36484562 C13.5962704 3.36399445 11.34994522 3.36658405 9.10363276 3.37281419 C6.06900006 3.38074676 3.034628 3.37657187 0 3.36914349 C-0.88836638 3.37439751 -1.77673277 3.37965154 -2.69201934 3.38506478 C-8.71667949 3.35133943 -8.71667949 3.35133943 -10.94497108 1.12304783 C-7.56280808 -0.56803367 -3.72004141 -0.01100064 0 0 Z " fill="#2E2F2F" transform="translate(242.94497108459473,108.87695217132568)"/>
<path d="M0 0 C136.29 0 272.58 0 413 0 C413 0.66 413 1.32 413 2 C413.66 2.33 414.32 2.66 415 3 C277.06 3 139.12 3 -3 3 C-2.01 2.67 -1.02 2.34 0 2 C0 1.34 0 0.68 0 0 Z " fill="#292B2A" transform="translate(366,433)"/>
<path d="M0 0 C4.29 0 8.58 0 13 0 C13.09943606 7.20414276 13.17173702 14.40787932 13.21972656 21.61254883 C13.2397483 24.0595598 13.26697398 26.50652349 13.30175781 28.95336914 C13.35069163 32.48595907 13.37306416 36.01791229 13.390625 39.55078125 C13.41127014 40.63144363 13.43191528 41.71210602 13.45318604 42.82551575 C13.45599452 52.49547162 11.43798155 61.35045246 4.5625 68.5 C3.82128906 69.2940625 3.08007812 70.088125 2.31640625 70.90625 C-0.01353354 73.01223268 -2.18438001 74.60864188 -5 76 C-5.66 75.67 -6.32 75.34 -7 75 C-6.47599609 73.96939453 -6.47599609 73.96939453 -5.94140625 72.91796875 C-5.48636719 72.01691406 -5.03132812 71.11585938 -4.5625 70.1875 C-4.11003906 69.29417969 -3.65757812 68.40085937 -3.19140625 67.48046875 C-1.25856962 63.45636627 -0.85750773 60.3930443 -0.79467773 55.96801758 C-0.77473251 54.72695755 -0.75478729 53.48589752 -0.73423767 52.20722961 C-0.71725473 50.8529981 -0.70037587 49.49876527 -0.68359375 48.14453125 C-0.66301772 46.75875741 -0.64202108 45.37298975 -0.62062073 43.98722839 C-0.56546699 40.34259047 -0.51602826 36.69789654 -0.46777344 33.05316162 C-0.41750944 29.3329165 -0.36184896 25.61275257 -0.30664062 21.89257812 C-0.19914098 14.59511896 -0.09817671 7.29759164 0 0 Z " fill="#EFEFEF" transform="translate(808,493)"/>
<path d="M0 0 C0 21.12 0 42.24 0 64 C-9.25322767 45.49354467 -3 22.69084607 -3 2 C-44.91 2 -86.82 2 -130 2 C-130 17.18 -130 32.36 -130 48 C-130.33 48 -130.66 48 -131 48 C-131 32.49 -131 16.98 -131 1 C-110.18352796 0.75043408 -110.18352796 0.75043408 -101.00976562 0.64453125 C-94.85488203 0.5734656 -88.70000625 0.50198496 -82.54516602 0.42724609 C-55.02751312 0.09383869 -27.52007366 -0.04906632 0 0 Z " fill="#EAE9E9" transform="translate(336,493)"/>
<path d="M0 0 C1.65 1.65 3.3 3.3 5 5 C4.67 5.99 4.34 6.98 4 8 C3.89875942 9.64920119 3.85376694 11.30212922 3.84178162 12.95439148 C3.8319928 13.97662811 3.82220398 14.99886475 3.81211853 16.05207825 C3.80636307 17.17273178 3.8006076 18.29338531 3.79467773 19.44799805 C3.78477814 20.62861816 3.77487854 21.80923828 3.76467896 23.02563477 C3.73848766 26.26294445 3.71662703 29.50024892 3.69667697 32.737602 C3.67480847 36.12089678 3.64742401 39.50414676 3.62062073 42.8874054 C3.57070552 49.29402946 3.52576235 55.70067841 3.48259836 62.10735112 C3.43321597 69.40114458 3.37830156 76.69489308 3.32291877 83.98864305 C3.20911672 98.99238681 3.10227381 113.9961729 3 129 C2.01 129.33 1.02 129.66 0 130 C0 87.1 0 44.2 0 0 Z " fill="#CDCDCD" transform="translate(164,734)"/>
<path d="M0 0 C0.33 0 0.66 0 1 0 C1 46.53 1 93.06 1 141 C-12.2 141 -25.4 141 -39 141 C-40 140 -40 140 -40.09765625 136.18359375 C-40.09098089 134.60153318 -40.07901875 133.01948841 -40.0625 131.4375 C-40.05798828 130.63119141 -40.05347656 129.82488281 -40.04882812 128.99414062 C-40.03700518 126.99606244 -40.01906914 124.99802217 -40 123 C-40.66 122.67 -41.32 122.34 -42 122 C-40.68 120.35 -39.36 118.7 -38 117 C-38 124.59 -38 132.18 -38 140 C-25.46 140 -12.92 140 0 140 C0 93.8 0 47.6 0 0 Z " fill="#FCFCFC" transform="translate(454,724)"/>
<path d="M0 0 C3 1 3 1 7 7 C-25.01 7 -57.02 7 -90 7 C-90 6.34 -90 5.68 -90 5 C-59.64 4.67 -29.28 4.34 2 4 C1.01 2.02 1.01 2.02 0 0 Z " fill="#FBFBFB" transform="translate(339,566)"/>
<path d="M0 0 C0.33 0 0.66 0 1 0 C1.33 8.58 1.66 17.16 2 26 C-10.21 26 -22.42 26 -35 26 C-34.67 24.68 -34.34 23.36 -34 22 C-22.78 22.33 -11.56 22.66 0 23 C0 15.41 0 7.82 0 0 Z " fill="#262727" transform="translate(288,838)"/>
<path d="M0 0 C0.33 0 0.66 0 1 0 C1 7.59 1 15.18 1 23 C13.54 23 26.08 23 39 23 C39 23.33 39 23.66 39 24 C33.46411467 24.02464775 27.928261 24.04283496 22.39233398 24.05493164 C20.5075627 24.05997244 18.62279535 24.06680498 16.73803711 24.07543945 C14.03498364 24.08751617 11.33198169 24.09323068 8.62890625 24.09765625 C7.35703209 24.10539818 7.35703209 24.10539818 6.0594635 24.11329651 C4.03928932 24.11349195 2.01922066 24.06206211 0 24 C-1 23 -1 23 -1.09765625 19.18359375 C-1.09098089 17.60153318 -1.07901875 16.01948841 -1.0625 14.4375 C-1.05798828 13.63119141 -1.05347656 12.82488281 -1.04882812 11.99414062 C-1.03700518 9.99606244 -1.01906914 7.99802217 -1 6 C-1.66 5.67 -2.32 5.34 -3 5 C-2.03114628 3.31503702 -1.03013277 1.64821244 0 0 Z " fill="#FBFCFC" transform="translate(715,841)"/>
<path d="M0 0 C2 3 2 3 2 5 C-9.55 5 -21.1 5 -33 5 C-32.67 4.01 -32.34 3.02 -32 2 C-16.16 2.495 -16.16 2.495 0 3 C0 2.01 0 1.02 0 0 Z " fill="#373838" transform="translate(596,755)"/>
<path d="M0 0 C3.43742918 -0.05802698 6.87473253 -0.09360486 10.3125 -0.125 C11.28896484 -0.14175781 12.26542969 -0.15851562 13.27148438 -0.17578125 C14.20927734 -0.18222656 15.14707031 -0.18867187 16.11328125 -0.1953125 C16.97735596 -0.20578613 17.84143066 -0.21625977 18.73168945 -0.22705078 C21 0 21 0 24 2 C16.26164903 4.57945032 7.70419388 3.0544517 0 1 C0 0.67 0 0.34 0 0 Z " fill="#232424" transform="translate(355,864)"/>
<path d="M0 0 C-1 2 -1 2 -3.625 3.125 C-9.00643103 4.52018582 -13.1083854 4.69145607 -18 2 C-15.37638987 1.47109454 -12.75151775 0.95157912 -10.125 0.4375 C-9.37863281 0.28603516 -8.63226562 0.13457031 -7.86328125 -0.02148438 C-2.2265625 -1.11328125 -2.2265625 -1.11328125 0 0 Z " fill="#E3E3E3" transform="translate(865,864)"/>
<path d="M0 0 C0.33 1.32 0.66 2.64 1 4 C0.01 4.495 0.01 4.495 -1 5 C0.32 5.66 1.64 6.32 3 7 C0.69 8.65 -1.62 10.3 -4 12 C-4.66 11.67 -5.32 11.34 -6 11 C-4.02 7.37 -2.04 3.74 0 0 Z " fill="#EBECEC" transform="translate(807,557)"/>
<path d="M0 0 C4.95 0 9.9 0 15 0 C15 0.33 15 0.66 15 1 C14.24074219 1.02578125 13.48148438 1.0515625 12.69921875 1.078125 C11.70535156 1.13484375 10.71148438 1.1915625 9.6875 1.25 C8.70136719 1.29640625 7.71523438 1.3428125 6.69921875 1.390625 C3.38302755 2.13928756 2.80161668 3.22828203 1 6 C0.34 6 -0.32 6 -1 6 C-0.67 4.02 -0.34 2.04 0 0 Z " fill="#252727" transform="translate(775,822)"/>
<path d="M0 0 C-2.65927684 2.65927684 -5.59408266 3.1810914 -9.125 4.125 C-10.11306641 4.39763672 -10.11306641 4.39763672 -11.12109375 4.67578125 C-12.74576456 5.12315437 -14.37267893 5.56236535 -16 6 C-15 3 -15 3 -11.9375 1.3125 C-7.86778428 -0.30863157 -4.34038951 -0.22844155 0 0 Z " fill="#E7E8E8" transform="translate(232,109)"/>
<path d="M0 0 C2 0 2 0 4.625 2.375 C7 5 7 5 7 7 C7.99 7.33 8.98 7.66 10 8 C9.67 8.66 9.34 9.32 9 10 C1.33257403 5.18223235 1.33257403 5.18223235 0 0 Z " fill="#EDEDEC" transform="translate(812,826)"/>
<path d="M0 0 C0.33 0.66 0.66 1.32 1 2 C0.34 2.66 -0.32 3.32 -1 4 C-1.33 4.66 -1.66 5.32 -2 6 C-4.64860427 6.59355614 -7.29197322 6.74209269 -10 7 C-7.2180632 3.72713318 -3.72045933 2.03572303 0 0 Z " fill="#EE2627" transform="translate(577,313)"/>
<path d="M0 0 C0 0.66 0 1.32 0 2 C-0.66 2.66 -1.32 3.32 -2 4 C-2.33 4.99 -2.66 5.98 -3 7 C-4.5625 8.6875 -4.5625 8.6875 -6 10 C-6.33663062 6.29706315 -6.47736015 4.60465619 -4.125 1.625 C-2 0 -2 0 0 0 Z " fill="#111211" transform="translate(394,472)"/>
<path d="M0 0 C0.66 0.33 1.32 0.66 2 1 C1.67 1.99 1.34 2.98 1 4 C-1.06640625 4.94921875 -1.06640625 4.94921875 -3.5625 5.6875 C-4.38878906 5.93886719 -5.21507812 6.19023438 -6.06640625 6.44921875 C-6.70449219 6.63097656 -7.34257813 6.81273437 -8 7 C-8 6.34 -8 5.68 -8 5 C-6.3203125 3.67578125 -6.3203125 3.67578125 -4.125 2.3125 C-3.40570312 1.85488281 -2.68640625 1.39726563 -1.9453125 0.92578125 C-1.30335938 0.62027344 -0.66140625 0.31476562 0 0 Z " fill="#111212" transform="translate(704,827)"/>
<path d="M0 0 C1.70884005 1.62339805 3.37446717 3.29319053 5 5 C5 5.66 5 6.32 5 7 C5.99 7.33 6.98 7.66 8 8 C7.34 8.66 6.68 9.32 6 10 C4.99106869 8.90398831 3.99311775 7.79786082 3 6.6875 C2.1646875 5.76517578 2.1646875 5.76517578 1.3125 4.82421875 C0 3 0 3 0 0 Z " fill="#E5E5E6" transform="translate(209,555)"/>
<path d="M0 0 C-2.06756277 2.7972908 -3.14440371 3.02692273 -6.6875 3.6875 C-7.780625 3.790625 -8.87375 3.89375 -10 4 C-9.67 3.01 -9.34 2.02 -9 1 C-2.63157895 -1.31578947 -2.63157895 -1.31578947 0 0 Z " fill="#ECECEB" transform="translate(391,864)"/>
<path d="M0 0 C1.69752187 0.25245197 3.38471545 0.57645775 5.0625 0.9375 C5.98160156 1.13214844 6.90070312 1.32679688 7.84765625 1.52734375 C8.91306641 1.76130859 8.91306641 1.76130859 10 2 C6.328125 4.03125 6.328125 4.03125 3.375 3.75 C1 3 1 3 -1 1 C-0.67 0.67 -0.34 0.34 0 0 Z " fill="#E4E5E4" transform="translate(650,863)"/>
<path d="M0 0 C4.31392226 0.4793247 6.16569547 1.7457985 9 5 C7.68 5 6.36 5 5 5 C5 4.34 5 3.68 5 3 C2.03 2.505 2.03 2.505 -1 2 C-0.67 1.34 -0.34 0.68 0 0 Z " fill="#E8E9E9" transform="translate(551,810)"/>
<path d="M0 0 C2 2 2 2 2.1953125 3.9453125 C2.13020833 5.96354167 2.06510417 7.98177083 2 10 C1.01 10 0.02 10 -1 10 C-1.125 2.25 -1.125 2.25 0 0 Z " fill="#D7D7D7" transform="translate(515,752)"/>
<path d="M0 0 C0.91007813 0.10183594 1.82015625 0.20367188 2.7578125 0.30859375 C3.45648437 0.39238281 4.15515625 0.47617187 4.875 0.5625 C4.875 0.8925 4.875 1.2225 4.875 1.5625 C-3.69642857 2.99107143 -3.69642857 2.99107143 -7.125 0.5625 C-4.50184968 -0.74907516 -2.89466564 -0.33399988 0 0 Z " fill="#282A29" transform="translate(826.125,801.4375)"/>
<path d="M0 0 C-0.66 0 -1.32 0 -2 0 C-2 0.66 -2 1.32 -2 2 C-3.98 2.33 -5.96 2.66 -8 3 C-8 2.01 -8 1.02 -8 0 C-4.94736336 -0.98120464 -3.05263664 -0.98120464 0 0 Z " fill="#E6E6E6" transform="translate(690,865)"/>
<path d="M0 0 C-0.33 0.99 -0.66 1.98 -1 3 C-2.98 3.33 -4.96 3.66 -7 4 C-7 3.01 -7 2.02 -7 1 C-4.50935112 0.31292445 -2.62113708 0 0 0 Z " fill="#E3E4E4" transform="translate(562,864)"/>
<path d="M0 0 C0.66 0 1.32 0 2 0 C3.32 2.31 4.64 4.62 6 7 C5.34 7.66 4.68 8.32 4 9 C2.47551369 6.0173094 1.06059933 3.181798 0 0 Z " fill="#ECECEC" transform="translate(233,836)"/>
</svg>
